<?xml version="1.0" encoding="UTF-8" standalone="no"?>
<svg
   xmlns:dc="http://purl.org/dc/elements/1.1/"
   xmlns:cc="http://creativecommons.org/ns#"
   xmlns:rdf="http://www.w3.org/1999/02/22-rdf-syntax-ns#"
   xmlns:svg="http://www.w3.org/2000/svg"
   xmlns="http://www.w3.org/2000/svg"
   xmlns:sodipodi="http://sodipodi.sourceforge.net/DTD/sodipodi-0.dtd"
   xmlns:inkscape="http://www.inkscape.org/namespaces/inkscape"
   sodipodi:docname="svglogo2.svg"
   inkscape:version="0.91 r13725"
   id="svg2"
   preserveAspectRatio="xMidYMid meet"
   viewBox="0 0 1251.000000 1032.000000"
   height="1032.000000pt"
   width="1251.000000pt"
   version="1.0">
  <defs
     id="defs42" />
  <sodipodi:namedview
     inkscape:current-layer="g6"
     inkscape:window-maximized="0"
     inkscape:window-y="88"
     inkscape:window-x="322"
     inkscape:cy="730.04402"
     inkscape:cx="334.22492"
     inkscape:zoom="0.36589147"
     showgrid="false"
     id="namedview40"
     inkscape:window-height="854"
     inkscape:window-width="1456"
     inkscape:pageshadow="2"
     inkscape:pageopacity="0"
     guidetolerance="10"
     gridtolerance="10"
     objecttolerance="10"
     borderopacity="1"
     bordercolor="#666666"
     pagecolor="#ffffff" />
  <metadata
     id="metadata4">
Created by potrace 1.11, written by Peter Selinger 2001-2013
<rdf:RDF>
  <cc:Work
     rdf:about="">
    <dc:format>image/svg+xml</dc:format>
    <dc:type
       rdf:resource="http://purl.org/dc/dcmitype/StillImage" />
    <dc:title></dc:title>
  </cc:Work>
</rdf:RDF>
</metadata>
  <g
     transform="translate(0.000000,1032.000000) scale(0.100000,-0.100000)"
     fill="#000000"
     stroke="none"
     id="g6">
    <path
       d="M6180 8805 l0 -265 -1430 0 -1430 0 0 -3484 0 -3485 1238 -3 1237 -3 55 -27 c96 -48 193 -29 245 50 48 73 45 148 -8 209 -60 68 -131 79 -241 38 l-66 -25 -1105 0 -1105 0 0 3240 0 3240 1305 0 1305 0 0 -205 0 -205 48 0 c26 0 63 -3 83 -6 73 -12 69 -44 69 612 l0 584 -100 0 -100 0 0 -265z"
       id="path8"
       style="stroke:#ff0000;stroke-opacity:1;fill:#ff0000;fill-opacity:1" />
    <path
       d="M6510 8415 l0 -355 100 0 100 0 0 115 0 115 1303 -2 1302 -3 3 -3238 2 -3237 -1112 0 -1113 0 -53 25 c-110 51 -201 24 -261 -78 l-34 -57 -351 -202 c-193 -111 -352 -202 -354 -204 -4 -3 87 -162 96 -168 4 -2 34 12 67 31 33 20 188 109 345 199 l285 164 71 -6 c66 -6 77 -4 130 22 l59 29 1228 0 c1217 0 1229 0 1244 20 14 18 15 158 9 1300 -3 704 -6 2264 -6 3468 l0 2187 -1430 0 -1430 0 0 115 0 115 -100 0 -100 0 0 -355z"
       id="path10"
       style="stroke:#ff0000;stroke-opacity:1;fill:#ff0000;fill-opacity:1" />
    <path
       d="M4101 7510 c-318 -48 -502 -391 -361 -676 78 -158 215 -249 405 -269 87 -9 123 -27 141 -70 18 -44 18 -59 -3 -102 -47 -101 -176 -94 -219 11 l-19 46 -176 0 c-97 0 -178 -3 -181 -6 -11 -10 42 -187 69 -233 63 -107 175 -196 287 -226 50 -14 88 -17 161 -13 87 5 104 9 179 47 241 119 342 402 225 633 -78 154 -214 240 -418 263 -72 8 -105 27 -126 71 -25 52 -15 101 30 142 48 45 109 45 159 2 19 -17 38 -44 41 -60 l7 -30 126 0 c70 0 143 -3 162 -6 23 -3 42 0 54 9 19 14 19 19 8 78 -47 253 -293 427 -551 389z"
       id="path12"
       style="stroke:#ff0000;stroke-opacity:1;fill:#ff0000;fill-opacity:1" />
    <path
       d="M4783 6983 c3 -439 6 -536 19 -578 49 -160 167 -299 318 -372 98 -48 162 -63 263 -63 149 0 291 58 404 163 80 75 129 151 167 257 l31 85 3 518 3 517 -180 0 -180 0 -4 -492 c-3 -540 -3 -536 -64 -607 -39 -47 -123 -91 -171 -91 -97 0 -196 71 -231 166 -20 52 -21 75 -21 539 l0 485 -181 0 -180 0 4 -527z"
       id="path14"
       style="stroke:#ff0000;stroke-opacity:1;fill:#ff0000;fill-opacity:1" />
    <path
       d="M6100 6740 l0 -770 180 0 180 0 0 294 0 294 123 3 c119 4 126 5 199 42 208 102 319 335 263 552 -46 176 -186 314 -349 344 -34 6 -178 11 -328 11 l-268 0 0 -770z"
       id="path16"
       style="stroke:#ff0000;stroke-opacity:1;fill:#ff0000;fill-opacity:1" />
    <path
       d="M7130 6740 l0 -770 469 0 c365 0 472 3 478 13 4 6 10 85 11 175 l4 162 -301 0 -301 0 0 125 0 125 215 0 215 0 0 175 0 175 -215 0 -215 0 0 126 0 127 125 -7 c136 -8 435 2 456 15 10 6 14 51 17 168 l4 161 -481 0 -481 0 0 -770z"
       id="path18"
       style="stroke:#ff0000;stroke-opacity:1;fill:#ff0000;fill-opacity:1" />
    <path
       d="M8253 7503 l-33 -4 0 -765 0 -764 173 2 172 3 5 264 c5 242 6 262 21 245 9 -11 62 -120 119 -244 57 -124 110 -235 118 -247 14 -22 19 -23 193 -23 99 0 179 2 179 5 0 3 -63 143 -140 311 -77 169 -140 309 -140 313 0 4 27 29 60 54 33 26 80 74 104 107 82 111 107 219 82 357 -37 214 -174 354 -371 383 -66 9 -472 11 -542 3z"
       id="path20"
       style="stroke:#ff0000;stroke-opacity:1;fill:#ff0000;fill-opacity:1" />
    <path
       d="M5835 5683 c-151 -21 -281 -87 -395 -202 -141 -142 -191 -265 -211 -516 -15 -189 0 -470 31 -570 109 -353 475 -564 822 -476 200 51 357 179 458 372 64 122 72 170 77 459 6 283 -5 386 -52 502 -113 281 -437 471 -730 431z m155 -650 c-21 -60 -43 -121 -49 -136 -6 -16 -11 -33 -11 -38 0 -5 52 -9 120 -9 66 0 120 -3 120 -6 0 -4 -270 -365 -317 -423 -1 -2 -5 -2 -8 0 -2 3 20 69 50 148 30 78 55 144 55 147 0 2 -61 4 -135 4 -74 0 -135 3 -135 6 0 6 133 173 268 337 35 42 68 77 72 77 5 0 -9 -48 -30 -107z"
       id="path22"
       style="stroke:#ff0000;stroke-opacity:1;fill:#ff0000;fill-opacity:1" />
    <path
       d="M6760 4801 l0 -891 205 0 205 0 0 310 c0 171 3 310 8 310 10 -1 133 -261 192 -407 27 -65 63 -135 80 -156 53 -63 65 -66 267 -64 l181 2 -13 30 c-21 50 -305 667 -315 686 -8 14 -3 22 28 40 59 37 150 128 187 188 72 120 97 275 65 411 -33 144 -144 287 -276 357 -112 60 -147 65 -496 70 l-318 6 0 -892z"
       id="path24"
       style="stroke:#ff0000;stroke-opacity:1;fill:#ff0000;fill-opacity:1" />
    <path
       d="M4240 5664 c-195 -52 -363 -190 -450 -369 -63 -130 -74 -208 -75 -515 0 -309 5 -340 76 -488 42 -87 62 -115 132 -185 142 -142 266 -197 457 -205 139 -5 206 9 330 70 70 34 102 58 180 137 69 69 106 116 133 168 45 86 77 205 77 285 l0 58 -188 0 c-135 0 -193 -4 -204 -12 -9 -7 -21 -38 -28 -70 -30 -149 -181 -259 -316 -229 -105 24 -198 116 -225 224 -8 33 -10 123 -7 290 4 215 7 247 25 287 28 64 68 107 126 136 111 57 224 39 313 -51 50 -50 66 -83 100 -212 3 -10 52 -13 204 -13 l200 0 0 58 c0 83 -25 175 -72 272 -34 68 -60 103 -133 176 -74 75 -105 99 -175 133 -47 22 -112 48 -145 56 -76 19 -261 19 -335 -1z"
       id="path26"
       style="stroke:#ff0000;stroke-opacity:1;fill:#ff0000;fill-opacity:1" />
    <path
       d="M8010 4790 l0 -890 520 0 c372 0 526 3 545 12 l25 11 0 194 0 193 -340 0 -340 0 0 140 0 140 231 0 c140 0 238 4 250 10 18 10 19 23 19 205 l0 195 -250 0 -250 0 0 140 0 140 324 0 c178 0 331 3 340 6 14 5 16 32 16 200 l0 194 -545 0 -545 0 0 -890z"
       id="path28"
       style="stroke:#ff0000;stroke-opacity:1;fill:#ff0000;fill-opacity:1" />
    <path
       d="M5259 3610 c-9 -5 -30 -49 -48 -97 -87 -246 -411 -1187 -411 -1194 0 -5 69 -9 154 -9 131 0 156 2 167 17 8 9 50 120 95 247 l81 231 115 3 115 3 16 -43 c9 -24 46 -128 82 -233 37 -104 74 -198 82 -207 14 -16 36 -18 170 -18 104 0 153 3 153 11 0 6 -72 216 -159 467 -88 252 -185 531 -216 622 -32 91 -66 174 -77 185 -17 18 -33 20 -161 23 -81 1 -149 -2 -158 -8z"
       id="path30"
       style="stroke:#ff0000;stroke-opacity:1;fill:#ff0000;fill-opacity:1" />
    <path
       d="M6129 3609 c-10 -6 -14 -28 -14 -71 0 -35 1 -325 3 -645 l2 -583 145 0 c132 0 145 2 155 19 6 12 10 92 10 192 0 101 4 169 9 164 5 -6 35 -86 67 -178 31 -93 64 -175 71 -183 11 -11 48 -14 153 -14 130 0 140 1 154 21 8 12 40 97 72 190 32 93 61 169 66 169 4 0 9 -84 10 -187 l3 -188 140 -3 c123 -2 141 0 152 15 10 13 13 158 13 655 l0 638 -112 0 c-144 0 -186 -7 -203 -34 -8 -12 -75 -196 -151 -411 -75 -214 -139 -393 -143 -397 -3 -4 -69 175 -146 399 -77 223 -145 413 -151 421 -9 13 -38 16 -151 18 -77 1 -146 -2 -154 -7z"
       id="path32"
       style="stroke:#ff0000;stroke-opacity:1;fill:#ff0000;fill-opacity:1" />
    <path
       d="M7450 2965 l0 -655 393 0 c292 0 396 3 405 12 8 8 12 56 12 150 l0 138 -250 0 -250 0 0 105 0 105 169 0 c141 0 172 3 185 16 13 12 16 41 16 150 l0 134 -185 0 -185 0 0 100 0 100 250 0 250 0 0 140 c0 126 -2 140 -19 149 -11 6 -168 10 -405 11 l-386 0 0 -655z"
       id="path34"
       style="stroke:#ff0000;stroke-opacity:1;fill:#ff0000;fill-opacity:1" />
    <path
       d="M8698 3610 c-205 -36 -357 -237 -333 -442 15 -127 112 -260 231 -315 31 -14 94 -30 146 -37 106 -15 128 -32 128 -98 0 -32 -7 -47 -34 -74 -52 -52 -106 -41 -156 32 l-26 39 -132 3 -131 3 -17 -26 c-15 -22 -15 -32 -4 -68 60 -204 228 -327 431 -315 146 9 272 95 340 233 32 66 34 75 34 175 0 96 -3 110 -29 165 -60 122 -177 203 -326 226 -93 14 -124 29 -140 69 -26 62 23 133 91 133 25 0 42 -10 81 -52 l50 -52 136 3 137 3 -1 55 c-2 100 -83 223 -186 284 -89 52 -196 73 -290 56z"
       id="path36"
       style="stroke:#ff0000;stroke-opacity:1;fill:#ff0000;fill-opacity:1" />
    <path
       d="M4064 3596 c-177 -56 -322 -214 -356 -391 -18 -98 -15 -417 5 -499 24 -97 72 -181 142 -251 133 -133 317 -178 491 -120 41 14 76 25 78 25 2 0 7 -11 10 -25 l6 -25 140 0 140 0 0 325 0 325 -260 0 -260 0 0 -140 0 -139 73 -3 72 -3 -37 -28 c-21 -16 -55 -31 -78 -34 -83 -11 -180 55 -211 143 -19 53 -19 363 0 417 16 47 63 102 104 124 58 30 168 12 220 -35 26 -23 53 -78 61 -124 4 -21 15 -42 24 -47 9 -4 75 -8 146 -7 155 1 156 2 139 102 -32 187 -181 355 -362 408 -66 19 -228 20 -287 2z"
       id="path38"
       style="stroke:#ff0000;stroke-opacity:1;fill:#ff0000;fill-opacity:1" />
  </g>
</svg>
